    <svg xmlns="http://www.w3.org/2000/svg" viewBox="0 0 257.09 107.51">
      <g>
    <g id="Layer_1">
      <g id="Layer_1-2" data-name="Layer_1">
        <g>
          <path fill="#093b5d" d="M69.26,98.41h.01s0,0,0,0h-.01Z"/>
          <path fill="#093b5d" d="M75.19,93.71c.09-.02.18-.07.27-.11.63-.32,1.14-.76,1.5-1.32.37-.56.55-1.21.55-1.93s-.17-1.37-.52-1.92c-.34-.55-.82-.99-1.44-1.3-.61-.31-1.32-.47-2.13-.47h-4.15v11.75h1.94v-4.33h2.07l2.51,4.34h2.19l-2.79-4.71ZM71.24,88.43h2.13c.64,0,1.16.18,1.56.54.4.36.6.82.6,1.38,0,.37-.09.7-.28.99-.18.29-.42.52-.72.69-.3.17-.64.25-1.02.25h-2.27v-3.85Z"/>
          <path fill="#093b5d" d="M83.87,98.62c-.82,0-1.54-.19-2.18-.56s-1.13-.89-1.5-1.55c-.36-.66-.55-1.42-.55-2.29s.18-1.62.55-2.29c.37-.66.88-1.18,1.52-1.55.64-.38,1.38-.56,2.21-.56.75,0,1.43.19,2.03.58s1.08.94,1.44,1.67c.35.73.53,1.6.53,2.6h-6.6l.25-.24c0,.51.11.96.34,1.33.22.38.52.66.89.87.37.2.78.3,1.23.3.51,0,.94-.12,1.28-.34s.6-.53.79-.9l1.66.71c-.24.45-.54.84-.9,1.18-.36.34-.8.59-1.29.77-.5.18-1.07.27-1.71.27h.01ZM81.7,93.46l-.27-.24h4.74l-.25.24c0-.46-.1-.84-.3-1.13-.2-.3-.46-.52-.76-.67-.31-.15-.63-.23-.97-.23s-.67.08-1.01.23c-.34.15-.62.38-.84.67-.22.3-.34.67-.34,1.13Z"/>
          <path fill="#093b5d" d="M89.88,98.42v-11.76h1.88v11.76h-1.88Z"/>
          <path fill="#093b5d" d="M98.1,98.62c-.82,0-1.54-.19-2.18-.56s-1.13-.89-1.5-1.55c-.36-.66-.55-1.42-.55-2.29s.18-1.62.55-2.29c.37-.66.88-1.18,1.52-1.55.64-.38,1.38-.56,2.21-.56.75,0,1.43.19,2.03.58s1.08.94,1.44,1.67c.35.73.53,1.6.53,2.6h-6.6l.25-.24c0,.51.11.96.34,1.33.22.38.52.66.89.87.37.2.78.3,1.23.3.51,0,.94-.12,1.28-.34s.6-.53.79-.9l1.66.71c-.24.45-.54.84-.9,1.18-.36.34-.8.59-1.29.77-.5.18-1.07.27-1.71.27h.01ZM95.93,93.46l-.27-.24h4.74l-.25.24c0-.46-.1-.84-.3-1.13-.2-.3-.46-.52-.76-.67-.31-.15-.63-.23-.97-.23s-.67.08-1.01.23c-.34.15-.62.38-.84.67-.22.3-.34.67-.34,1.13Z"/>
          <path fill="#093b5d" d="M109.81,98.42v-4.32c0-.66-.08-1.18-.23-1.54-.15-.36-.36-.62-.64-.76-.28-.14-.6-.22-.97-.22-.63-.01-1.11.2-1.46.62-.35.43-.52,1.04-.52,1.83v4.39h-1.88v-8.4h1.76l.09,1.17c.22-.36.49-.66.82-.89.48-.33,1.05-.5,1.71-.5s1.25.13,1.72.4c.48.27.84.69,1.09,1.25.25.57.38,1.3.38,2.21v4.76s-1.87,0-1.87,0Z"/>
          <path fill="#093b5d" d="M119.19,98c-.29.2-.58.36-.87.46-.29.11-.58.16-.87.16h-.02c-.88,0-1.56-.22-2.02-.66-.46-.44-.7-1.08-.7-1.91v-4.42h-1.39v-1.61h1.39v-2.62h1.87v2.62h2.27v1.61h-2.27v4.07c0,.39.09.69.28.89.19.2.46.3.82.3.11,0,.24-.02.37-.07.13-.04.29-.13.45-.25l.69,1.43Z"/>
          <path fill="#093b5d" d="M121.2,98.42v-11.76h1.88v11.76h-1.88Z"/>
          <path fill="#093b5d" d="M129.41,98.62c-.82,0-1.54-.19-2.18-.56s-1.13-.89-1.5-1.55c-.36-.66-.55-1.42-.55-2.29s.18-1.62.55-2.29c.37-.66.88-1.18,1.52-1.55.64-.38,1.38-.56,2.21-.56.75,0,1.43.19,2.03.58s1.08.94,1.44,1.67c.35.73.53,1.6.53,2.6h-6.6l.25-.24c0,.51.11.96.34,1.33.22.38.52.66.89.87.37.2.78.3,1.23.3.51,0,.94-.12,1.28-.34s.6-.53.79-.9l1.66.71c-.24.45-.54.84-.9,1.18-.36.34-.8.59-1.29.77-.5.18-1.07.27-1.71.27h0ZM127.24,93.46l-.27-.24h4.74l-.25.24c0-.46-.1-.84-.3-1.13-.2-.3-.46-.52-.76-.67-.31-.15-.63-.23-.97-.23s-.67.08-1.01.23-.62.38-.84.67c-.22.3-.34.67-.34,1.13h0Z"/>
          <path fill="#093b5d" d="M138.48,98.62c-.56,0-1.07-.08-1.54-.25s-.87-.41-1.21-.71c-.34-.31-.59-.67-.77-1.08l1.63-.72c.17.31.42.58.75.79s.7.32,1.1.32c.44,0,.79-.08,1.05-.23.26-.15.39-.36.39-.63s-.1-.46-.3-.6-.49-.25-.86-.34l-.79-.22c-.8-.2-1.42-.52-1.87-.97s-.67-.95-.67-1.52c0-.84.27-1.49.82-1.95.54-.46,1.32-.69,2.34-.69.52,0,.99.08,1.42.23s.8.36,1.12.64.53.6.66.97l-1.56.71c-.11-.28-.33-.5-.64-.65s-.66-.23-1.04-.23-.68.08-.89.24c-.21.16-.32.39-.32.68,0,.17.09.32.29.46.19.14.46.25.82.34l.99.24c.55.13,1,.34,1.34.63.35.29.6.6.77.96.17.35.25.71.25,1.07,0,.5-.14.95-.43,1.33-.29.38-.67.67-1.17.88-.49.21-1.05.31-1.68.31h0Z"/>
          <path fill="#093b5d" d="M146.8,98.62c-.56,0-1.07-.08-1.54-.25s-.87-.41-1.21-.71c-.34-.31-.59-.67-.77-1.08l1.63-.72c.17.31.42.58.75.79s.7.32,1.1.32c.44,0,.79-.08,1.05-.23.26-.15.39-.36.39-.63s-.1-.46-.3-.6-.49-.25-.86-.34l-.79-.22c-.8-.2-1.42-.52-1.87-.97s-.67-.95-.67-1.52c0-.84.27-1.49.82-1.95.54-.46,1.32-.69,2.34-.69.52,0,.99.08,1.42.23s.8.36,1.12.64.53.6.66.97l-1.56.71c-.11-.28-.33-.5-.64-.65s-.66-.23-1.04-.23-.68.08-.89.24c-.21.16-.32.39-.32.68,0,.17.09.32.29.46.19.14.46.25.82.34l.99.24c.55.13,1,.34,1.34.63.35.29.6.6.77.96.17.35.25.71.25,1.07,0,.5-.14.95-.43,1.33-.29.38-.67.67-1.17.88-.49.21-1.05.31-1.68.31h0Z"/>
          <path fill="#093b5d" d="M156.98,98.42v-11.76h7.24v1.78h-5.29v3.12h4.67v1.75h-4.67v3.33h5.34v1.78h-7.29Z"/>
          <polygon fill="#093b5d" points="174.43 98.42 172.2 98.42 170.32 95.59 168.41 98.42 166.17 98.42 169.29 94.07 166.38 90.02 168.6 90.02 170.31 92.57 172.01 90.02 174.23 90.02 171.35 94.09 174.43 98.42"/>
          <path fill="#093b5d" d="M179.86,98.62c-.86,0-1.62-.19-2.29-.56-.66-.38-1.18-.89-1.55-1.55-.38-.66-.56-1.42-.56-2.29s.19-1.62.56-2.29c.38-.66.89-1.18,1.55-1.55.66-.38,1.41-.56,2.26-.56s1.58.2,2.25.6,1.17.97,1.5,1.71l-1.75.67c-.18-.37-.45-.67-.82-.89-.37-.22-.79-.34-1.26-.34s-.87.12-1.23.34-.64.54-.84.94-.3.85-.3,1.37.1.97.31,1.37.49.71.86.94c.36.23.78.34,1.23.34s.89-.12,1.26-.36.64-.57.82-.98l1.75.67c-.32.76-.82,1.36-1.49,1.78-.67.43-1.42.64-2.26.64Z"/>
          <path fill="#093b5d" d="M189.32,98.62c-.82,0-1.54-.19-2.18-.56s-1.13-.89-1.5-1.55c-.36-.66-.55-1.42-.55-2.29s.18-1.62.55-2.29c.37-.66.88-1.18,1.52-1.55.64-.38,1.38-.56,2.21-.56.75,0,1.43.19,2.03.58s1.08.94,1.44,1.67c.35.73.53,1.6.53,2.6h-6.6l.25-.24c0,.51.11.96.34,1.33.22.38.52.66.89.87.37.2.78.3,1.23.3.51,0,.94-.12,1.28-.34s.6-.53.79-.9l1.66.71c-.24.45-.54.84-.9,1.18-.36.34-.8.59-1.29.77-.5.18-1.07.27-1.71.27h0ZM187.15,93.46l-.27-.24h4.74l-.25.24c0-.46-.1-.84-.3-1.13-.2-.3-.46-.52-.76-.67-.31-.15-.63-.23-.97-.23s-.67.08-1.01.23-.62.38-.84.67c-.22.3-.34.67-.34,1.13h0Z"/>
          <path fill="#093b5d" d="M195.33,98.42v-11.76h1.88v11.76h-1.88Z"/>
          <path fill="#093b5d" d="M199.8,98.42v-11.76h1.88v11.76h-1.88Z"/>
          <path fill="#093b5d" d="M208.02,98.62c-.82,0-1.54-.19-2.18-.56s-1.13-.89-1.5-1.55c-.36-.66-.55-1.42-.55-2.29s.18-1.62.55-2.29c.37-.66.88-1.18,1.52-1.55.64-.38,1.38-.56,2.21-.56.75,0,1.43.19,2.03.58s1.08.94,1.44,1.67c.35.73.53,1.6.53,2.6h-6.6l.25-.24c0,.51.11.96.34,1.33.22.38.52.66.89.87.37.2.78.3,1.23.3.51,0,.94-.12,1.28-.34s.6-.53.79-.9l1.66.71c-.24.45-.54.84-.9,1.18-.36.34-.8.59-1.29.77-.5.18-1.07.27-1.71.27h0ZM205.85,93.46l-.27-.24h4.74l-.25.24c0-.46-.1-.84-.3-1.13-.2-.3-.46-.52-.76-.67-.31-.15-.63-.23-.97-.23s-.67.08-1.01.23-.62.38-.84.67c-.22.3-.34.67-.34,1.13h0Z"/>
          <path fill="#093b5d" d="M227.94,98.62c-.86,0-1.62-.19-2.29-.56-.66-.38-1.18-.89-1.55-1.55-.38-.66-.56-1.42-.56-2.29s.19-1.62.56-2.29c.38-.66.89-1.18,1.55-1.55.66-.38,1.41-.56,2.26-.56s1.58.2,2.25.6,1.17.97,1.5,1.71l-1.75.67c-.18-.37-.45-.67-.82-.89-.37-.22-.79-.34-1.26-.34s-.87.12-1.23.34-.64.54-.84.94-.3.85-.3,1.37.1.97.31,1.37.49.71.86.94c.36.23.78.34,1.23.34s.89-.12,1.26-.36.64-.57.82-.98l1.75.67c-.32.76-.82,1.36-1.49,1.78-.67.43-1.42.64-2.26.64Z"/>
          <path fill="#093b5d" d="M237.4,98.62c-.82,0-1.54-.19-2.18-.56s-1.13-.89-1.5-1.55c-.36-.66-.55-1.42-.55-2.29s.18-1.62.55-2.29c.37-.66.88-1.18,1.52-1.55.64-.38,1.38-.56,2.21-.56.75,0,1.43.19,2.03.58s1.08.94,1.44,1.67c.35.73.53,1.6.53,2.6h-6.6l.25-.24c0,.51.11.96.34,1.33.22.38.52.66.89.87.37.2.78.3,1.23.3.51,0,.94-.12,1.28-.34s.6-.53.79-.9l1.66.71c-.24.45-.54.84-.9,1.18-.36.34-.8.59-1.29.77-.5.18-1.07.27-1.71.27h0ZM235.23,93.46l-.27-.24h4.74l-.25.24c0-.46-.1-.84-.3-1.13-.2-.3-.46-.52-.76-.67-.31-.15-.63-.23-.97-.23s-.67.08-1.01.23-.62.38-.84.67c-.22.3-.34.67-.34,1.13h0Z"/>
          <path fill="#093b5d" d="M247.56,95.69c-.64,0-1.24-.12-1.8-.36s-1.05-.57-1.47-.99-.75-.91-.99-1.47-.36-1.16-.36-1.8.12-1.24.36-1.8c.24-.56.57-1.05.99-1.47s.91-.75,1.47-.99,1.16-.36,1.8-.36,1.24.12,1.8.36,1.05.57,1.47.99.75.91.99,1.47.36,1.16.36,1.8-.12,1.24-.36,1.8c-.24.56-.57,1.05-.99,1.47s-.91.75-1.47.99-1.16.36-1.8.36ZM247.56,94.64c.71,0,1.32-.15,1.85-.45s.94-.72,1.24-1.26.45-1.16.45-1.86-.15-1.34-.45-1.87-.72-.95-1.24-1.25c-.53-.3-1.14-.45-1.85-.45s-1.31.15-1.84.45c-.53.3-.95.72-1.24,1.25s-.45,1.16-.45,1.87.15,1.31.45,1.86.71.96,1.24,1.26,1.14.45,1.84.45ZM245.81,93.43v-4.91h1.85c.53,0,.96.15,1.29.45s.5.68.5,1.15c0,.31-.08.6-.25.85s-.39.45-.67.58l1.13,1.88h-1.14l-.97-1.7h-.71v1.7h-1.03ZM246.82,90.79h.84c.21,0,.39-.06.53-.19.14-.12.21-.29.21-.49s-.07-.36-.22-.49-.33-.19-.55-.19h-.81v1.36Z"/>
          <path fill="#093b5d" d="M219.73,98.42v-4.32c0-.66-.08-1.18-.23-1.54-.15-.36-.36-.62-.64-.76-.28-.14-.6-.22-.97-.22-.63-.01-1.11.2-1.46.62-.35.43-.52,1.04-.52,1.83v4.39h-1.88v-8.4h1.76l.09,1.17c.22-.36.49-.66.82-.89.48-.33,1.05-.5,1.71-.5s1.25.13,1.72.4c.48.27.84.69,1.09,1.25.25.57.38,1.3.38,2.21v4.76s-1.87,0-1.87,0Z"/>
        </g>
        <g>
          <g>
            <path fill="#231f20" d="M90.42,34.17c0-3.12-2.17-4.28-5.3-4.28s-5.36,1.15-5.36,4.28v.68c0,1.83,1.43,2.65,2.17,2.92l11.41,3.87c5.02,1.7,8.49,5.23,8.49,10.25v4.82c0,5.84-4.14,11.61-16.91,11.61s-17.04-5.77-17.04-11.61v-4.55c0-1.43.54-2.04,1.97-2.04h7.06c1.43,0,1.9.61,1.9,2.04v3.06c0,3.12,2.65,4.28,5.98,4.28s6.04-1.15,6.04-4.28v-1.36c0-2.44-3.26-3.6-5.84-4.55l-9.78-3.67c-3.46-1.29-6.31-5.09-6.31-9.03v-3.94c0-5.84,3.53-11.61,16.09-11.61s16.36,5.77,16.36,11.61v2.51c0,1.43-.54,2.04-1.97,2.04h-7.06c-1.43,0-1.9-.61-1.9-2.04v-1.02h0Z"/>
            <path fill="#231f20" d="M135.02,21.6c1.43,0,2.04.47,2.04,1.9v5.3c0,1.43-.61,1.97-2.04,1.97h-8.69v34.97c0,1.43-.48,2.04-1.9,2.04h-7.33c-1.43,0-1.97-.61-1.97-2.04V30.77h-8.69c-1.43,0-2.04-.54-2.04-1.97v-5.3c0-1.43.61-1.9,2.04-1.9h28.59,0Z"/>
            <path fill="#231f20" d="M140.66,32.67c0-5.84,4.55-11.61,17.31-11.61s17.38,5.77,17.38,11.61v24.04c0,5.84-4.62,11.61-17.38,11.61s-17.31-5.77-17.31-11.61v-24.04ZM164.15,34.64c0-3.12-2.85-4.41-6.18-4.41s-6.11,1.29-6.11,4.41v20.1c0,3.12,2.78,4.41,6.11,4.41s6.18-1.29,6.18-4.41v-20.1Z"/>
            <path fill="#231f20" d="M192.32,54.74c0,3.12,2.78,4.41,6.11,4.41s6.18-1.29,6.18-4.41v-31.1c0-1.43.54-2.04,1.97-2.04h7.33c1.43,0,1.9.61,1.9,2.04v33.07c0,5.84-4.62,11.61-17.38,11.61s-17.31-5.77-17.31-11.61V23.64c0-1.43.54-2.04,1.97-2.04h7.33c1.43,0,1.9.61,1.9,2.04v31.1h0Z"/>
            <path fill="#231f20" d="M250.71,21.6c1.43,0,2.04.47,2.04,1.9v5.3c0,1.43-.61,1.97-2.04,1.97h-8.69v34.97c0,1.43-.48,2.04-1.9,2.04h-7.33c-1.43,0-1.97-.61-1.97-2.04V30.77h-8.69c-1.43,0-2.04-.54-2.04-1.97v-5.3c0-1.43.61-1.9,2.04-1.9h28.59,0Z"/>
          </g>
          <g>
            <polygon fill="#013c5a" points="19.51 54.87 61.44 54.87 45.52 34.51 19.51 54.87"/>
            <polygon fill="#0c99d5" points="13.03 59.93 28.95 80.28 61.44 54.87 19.51 54.87 13.03 59.93"/>
            <polygon fill="#8bc53f" points="45.52 34.51 3.59 34.51 19.51 54.87 45.52 34.51"/>
            <polygon fill="#0c99d5" points="52 29.45 36.07 9.1 3.59 34.51 45.52 34.51 52 29.45"/>
          </g>
        </g>
      </g>
    </g>
  </g>
    </svg>
